<?xml version="1.0" encoding="iso-8859-1"?>
<!-- Uploaded to: SVG Repo, www.svgrepo.com, Generator: SVG Repo Mixer Tools -->
<svg fill="#000000" height="800px" width="800px" version="1.1" id="Layer_1" xmlns="http://www.w3.org/2000/svg" xmlns:xlink="http://www.w3.org/1999/xlink" 
	 viewBox="0 0 512 512" xml:space="preserve">
<g>
	<g>
		<path d="M474.895,247.136c-18.067-11.336-39.313-16.335-59.861-21.171c-46.927-11.041-50.873-16.808-50.873-31.774
			c0-6.094,0-22.285,39.677-22.285c46.041,0,48.374,33.052,48.374,39.677c0,4.504,3.649,8.153,8.153,8.153h43.482
			c4.504,0,8.153-3.649,8.153-8.153c0-23.036-8.521-46.319-23.379-63.879c-13.737-16.234-39.597-35.586-84.782-35.586
			c-31.656,0-56.671,8.068-74.35,23.979c-16.196,14.575-25.115,35.206-25.115,58.093c0,30.206,12.484,53.356,37.105,68.804
			c18.067,11.336,39.313,16.335,59.861,21.171c46.927,11.04,50.873,16.807,50.873,31.774c0,2.522-4.704,8.212-17.662,13.547
			c-13.486,5.553-31.019,8.738-48.104,8.738c-67.171,0-81.81-40.095-102.072-95.587c-1.103-3.022-2.21-6.055-3.332-9.091
			c-1.56-4.224-6.247-6.38-10.473-4.823c-4.224,1.56-6.383,6.248-4.823,10.473c1.113,3.017,2.214,6.031,3.311,9.034
			c20.826,57.04,38.813,106.3,117.388,106.3c39.635,0,82.072-15.507,82.072-38.59c0-29.625-19.332-37.268-63.445-47.648
			c-19.251-4.53-39.157-9.215-54.927-19.109c-19.829-12.442-29.467-30.431-29.467-54.993c0-18.203,7.002-34.53,19.718-45.972
			c14.594-13.135,35.939-19.794,63.441-19.794c38.935,0,60.827,16.212,72.334,29.813c10.653,12.59,17.406,28.707,19.101,45.193
			h-27.406c-3.225-20.694-19.193-47.83-64.029-47.83c-17.615,0-30.762,2.918-40.195,8.919
			c-10.329,6.573-15.788,16.833-15.788,29.671c0,29.625,19.332,37.268,63.445,47.648c19.251,4.53,39.157,9.215,54.927,19.109
			c19.829,12.441,29.467,30.43,29.467,54.993c0,24.521-17.766,39.665-32.669,48.053c-20.002,11.256-47.915,17.714-76.579,17.714
			c-43.644,0-76.52-13.345-100.501-40.796c-20.58-23.556-31.681-53.958-42.417-83.36c-10.01-27.412-19.464-53.303-35.632-72.181
			c-10.945-12.779-30.488-29.769-73.645-29.769c-8.47,0-30.38,1.396-50.837,14.326c-18.217,11.513-39.932,35.63-39.932,85.139
			c0,74.913,40.637,92.648,76.042,99.729c16.899,3.378,40.258,1.353,60.965-5.284c5.632-1.805,10.788-3.85,15.412-6.11
			l14.427,23.119c-20.332,10.489-47.971,17.058-72.874,17.058c-8.353,0-16.18-0.719-23.262-2.135
			c-17.294-3.459-42.679-10.335-63.371-30.034c-22.904-21.805-34.517-54.219-34.517-96.343c0-53.931,22.137-83.893,40.708-99.531
			c20.459-17.23,48.611-27.11,77.237-27.11c40.812,0,71.654,12.844,94.285,39.265c8.792,10.265,16.607,22.896,23.888,38.62
			c1.891,4.085,6.735,5.864,10.825,3.971c4.085-1.893,5.864-6.739,3.971-10.825c-7.919-17.097-16.522-30.958-26.3-42.373
			c-25.916-30.256-60.808-44.964-106.669-44.964c-32.408,0-64.388,11.278-87.74,30.943C25.293,160.927,0,194.863,0,255.065
			c0,46.763,13.316,83.149,39.578,108.152c23.756,22.617,52.136,30.359,71.417,34.215c8.132,1.626,17.035,2.451,26.46,2.451
			c31.248,0,65.196-9.018,88.593-23.534c3.776-2.344,4.974-7.468,2.619-11.244l-23.01-36.87c-2.378-3.81-7.39-4.982-11.208-2.617
			c-3.509,2.172-9.642,5.385-18.939,8.365c-18.221,5.841-38.449,7.692-52.79,4.823c-32.686-6.539-62.934-21.208-62.934-83.741
			c0-77.162,56.995-83.159,74.463-83.159c36.431,0,52.411,13.737,61.261,24.071c14.249,16.636,23.212,41.181,32.702,67.168
			c11.247,30.803,22.876,62.653,45.452,88.495c27.262,31.205,64.153,46.373,112.781,46.373c62.392,0,125.554-28.192,125.554-82.072
			C512,285.734,499.516,262.584,474.895,247.136z"/>
	</g>
</g>
</svg>